<?xml version="1.0" standalone="no"?>
<!DOCTYPE svg PUBLIC "-//W3C//DTD SVG 20010904//EN"
 "http://www.w3.org/TR/2001/REC-SVG-20010904/DTD/svg10.dtd">
<svg version="1.0" xmlns="http://www.w3.org/2000/svg"
 width="512.000000pt" height="512.000000pt" viewBox="0 0 512.000000 512.000000"
 preserveAspectRatio="xMidYMid meet">
<metadata>
Created by potrace 1.11, written by Peter Selinger 2001-2013
</metadata>
<g transform="translate(0.000000,512.000000) scale(0.100000,-0.100000)"
fill="#000000" stroke="none">
<path d="M2378 5115 c-2 -1 -37 -5 -78 -9 -395 -34 -811 -171 -1151 -378 -38
-24 -78 -47 -87 -53 -10 -5 -49 -32 -87 -59 -214 -152 -411 -342 -603 -582
-84 -105 -230 -344 -295 -484 l-34 -75 116 -51 c64 -28 186 -82 271 -119 85
-37 270 -118 410 -180 140 -62 345 -151 455 -200 323 -141 516 -226 575 -252
102 -46 115 -51 190 -83 41 -18 102 -44 135 -59 33 -15 126 -56 207 -92 82
-35 148 -66 148 -69 0 -3 -82 -41 -183 -84 -100 -44 -205 -90 -234 -103 -28
-12 -57 -23 -62 -23 -17 0 -13 -12 24 -76 65 -109 168 -188 304 -235 l76 -26
1 -201 0 -201 -35 -23 c-19 -13 -49 -42 -65 -66 -28 -39 -31 -51 -32 -130 -1
-49 -14 -139 -28 -205 -14 -65 -28 -132 -31 -149 -3 -17 -7 -34 -9 -37 -2 -3
-7 -24 -10 -46 -4 -22 -9 -47 -11 -55 -3 -8 -23 -103 -46 -210 -22 -107 -42
-199 -43 -205 -19 -77 -26 -129 -20 -147 20 -63 95 -78 138 -27 14 17 26 38
27 47 0 9 2 24 4 33 5 25 45 211 56 254 5 22 11 51 13 65 12 67 69 325 76 345
5 13 6 26 3 29 -4 3 -2 6 4 6 6 0 9 -139 9 -392 -1 -216 2 -410 5 -431 8 -50
27 -68 74 -72 29 -3 42 1 60 21 13 13 24 37 26 52 2 15 4 214 3 442 0 340 2
407 12 370 10 -38 96 -433 110 -508 31 -163 55 -247 75 -268 43 -46 123 -22
133 40 3 17 -10 100 -29 185 -18 86 -52 244 -75 351 -51 239 -49 226 -60 280
-5 25 -12 55 -14 68 -3 13 -8 33 -12 44 -3 11 -7 62 -8 113 -1 87 -3 97 -31
137 -17 23 -46 53 -65 66 l-35 23 -1 205 0 204 35 6 c20 3 73 24 119 46 96 45
191 132 235 215 32 61 46 47 -118 118 -60 26 -137 59 -170 74 -33 15 -86 38
-117 51 -32 13 -58 26 -58 29 0 3 195 91 433 195 237 104 459 202 492 217 33
15 94 41 135 59 41 18 98 43 125 55 28 13 156 69 285 125 129 56 253 111 275
121 71 32 709 311 733 320 12 5 22 14 22 21 0 18 -75 170 -132 267 -407 693
-1078 1170 -1858 1320 -58 11 -132 23 -165 26 -33 4 -69 9 -80 12 -21 5 -452
13 -457 8z"/>
</g>
</svg>
